<?xml version="1.0" standalone="no"?>
<!DOCTYPE svg PUBLIC "-//W3C//DTD SVG 20010904//EN"
 "http://www.w3.org/TR/2001/REC-SVG-20010904/DTD/svg10.dtd">
<svg version="1.0" xmlns="http://www.w3.org/2000/svg"
 width="432.000000pt" height="438.000000pt" viewBox="0 0 432.000000 438.000000"
 preserveAspectRatio="xMidYMid meet">

<path d="M80.3,59l-15.5-9l15.5-9C83.8,39,85,34.5,83,31c-1.3-2.3-3.8-3.7-6.4-3.7c-1.3,0-2.6,0.3-3.7,1l-15.5,9V19.3
	c0-4.1-3.3-7.4-7.4-7.4c-4.1,0-7.4,3.3-7.4,7.4v17.9l-15.5-9c-1.1-0.6-2.4-1-3.7-1c-2.6,0-5.1,1.4-6.4,3.7c-2,3.5-0.8,8,2.7,10.1
	l15.5,9l-15.5,9C16.2,61,15,65.5,17,69c1.3,2.3,3.8,3.7,6.4,3.7c1.3,0,2.6-0.3,3.7-1l15.5-9v17.9c0,4.1,3.3,7.4,7.4,7.4
	c4.1,0,7.4-3.3,7.4-7.4V62.8l15.5,9c1.1,0.6,2.4,1,3.7,1l0,0c2.6,0,5.1-1.4,6.4-3.7C85,65.5,83.8,61,80.3,59z M74.1,30.4
	c0.8-0.4,1.6-0.7,2.5-0.7c1.8,0,3.4,0.9,4.3,2.5c1.4,2.3,0.5,5.4-1.8,6.7l-16.8,9.7l-4.9-2.8v-5.7L74.1,30.4z M50,55.7l-4.9-2.8
	v-5.7l4.9-2.8l4.9,2.8v5.7L50,55.7z M54.9,55.7v2.8l-2.5-1.4L54.9,55.7z M47.5,57.1l-2.5,1.4v-2.8L47.5,57.1z M42.6,51.4L40.2,50
	l2.5-1.4V51.4z M45.1,44.3v-2.8l2.5,1.4L45.1,44.3z M52.5,42.9l2.5-1.4v2.8L52.5,42.9z M57.4,48.6l2.5,1.4l-2.5,1.4V48.6z
	 M45.1,19.3c0-2.7,2.2-4.9,4.9-4.9c2.7,0,4.9,2.2,4.9,4.9v19.4L50,41.5l-4.9-2.8V19.3z M21,38.9c-1.1-0.7-2-1.7-2.3-3
	c-0.3-1.3-0.2-2.6,0.5-3.7c0.9-1.5,2.5-2.5,4.3-2.5c0.9,0,1.7,0.2,2.5,0.7l16.8,9.7v5.7l-4.9,2.8L21,38.9z M25.9,69.6
	c-2.3,1.3-5.4,0.5-6.7-1.8c-1.4-2.3-0.5-5.4,1.8-6.7l16.8-9.7l4.9,2.8v5.7L25.9,69.6z M54.9,80.7c0,2.7-2.2,4.9-4.9,4.9
	c-2.7,0-4.9-2.2-4.9-4.9V61.3l4.9-2.8l4.9,2.8V80.7z M80.8,67.8c-0.9,1.5-2.5,2.5-4.3,2.5l0,0c-0.9,0-1.7-0.2-2.5-0.7l-16.8-9.7
	v-5.7l4.9-2.8L79,61.1c1.1,0.7,2,1.7,2.3,3C81.7,65.3,81.5,66.7,80.8,67.8z" id="1538764235"></path> 
</svg>
